# xmcd CD database file
#
# Track frame offsets:
#	150
#	21780
#	42074
#	58973
#	78328
#	96102
#	117354
#	137991
#	159006
#	178014
#	197996
#	220950
#	244555
#
# Disc length: 3487 seconds
#
# Revision: 0
# Processed by: cddbd v1.5.2PL0 Copyright (c) Steve Scherf et al.
# Submitted via: CDex 1.51
#
DISCID=af0d9d0d
DTITLE=Peter Cincotti - East of angel town
DYEAR=2007
DGENRE=Jazz
TTITLE0=Angel town
TTITLE1=Goodbye Philadelphia
TTITLE2=Be careful
TTITLE3=Cinderella beautiful
TTITLE4=Make it out alive
TTITLE5=December boys
TTITLE6=UBU
TTITLE7=Another falling star
TTITLE8=Broken children
TTITLE9=Man on a mission
TTITLE10=Always watching you
TTITLE11=Witchs brew
TTITLE12=The country life
EXTD=YEAR: 2007
EXTT0=
EXTT1=
EXTT2=
EXTT3=
EXTT4=
EXTT5=
EXTT6=
EXTT7=
EXTT8=
EXTT9=
EXTT10=
EXTT11=
EXTT12=
PLAYORDER=
